<?xml version="1.0" encoding="utf-8"?>
<!-- Generator: Adobe Illustrator 27.1.1, SVG Export Plug-In . SVG Version: 6.00 Build 0)  -->
<svg version="1.1" id="Layer_1" xmlns="http://www.w3.org/2000/svg" xmlns:xlink="http://www.w3.org/1999/xlink" x="0px" y="0px"
	 viewBox="0 0 1000 1000" style="enable-background:new 0 0 1000 1000;" xml:space="preserve">
<style type="text/css">
	
		.st0{clip-path:url(#SVGID_00000116933172351844292730000007335680951134566057_);fill:url(#SVGID_00000013873828202441617580000009934283518340608169_);}
	
		.st1{clip-path:url(#SVGID_00000116933172351844292730000007335680951134566057_);fill:url(#SVGID_00000178164644014400003640000002947938278526366903_);}
	
		.st2{clip-path:url(#SVGID_00000116933172351844292730000007335680951134566057_);fill:url(#SVGID_00000091697776017767944180000008470429859008818367_);}
	
		.st3{clip-path:url(#SVGID_00000116933172351844292730000007335680951134566057_);fill:url(#SVGID_00000140732027881771704650000010107104641581459584_);}
	
		.st4{clip-path:url(#SVGID_00000116933172351844292730000007335680951134566057_);fill:url(#SVGID_00000134964023775074390760000006151311142333597329_);}
	.st5{clip-path:url(#SVGID_00000116933172351844292730000007335680951134566057_);}
	.st6{fill:none;stroke:url(#SVGID_00000163768591364920383060000009432272204698573477_);stroke-miterlimit:10;}
	
		.st7{clip-path:url(#SVGID_00000116933172351844292730000007335680951134566057_);fill:url(#SVGID_00000165928894540768230740000009494829254567554185_);}
	
		.st8{clip-path:url(#SVGID_00000116933172351844292730000007335680951134566057_);fill:url(#SVGID_00000119104710334069205230000009977640701715310257_);}
	
		.st9{clip-path:url(#SVGID_00000116933172351844292730000007335680951134566057_);fill:url(#SVGID_00000035514511485692867620000006151050580606499767_);}
	
		.st10{clip-path:url(#SVGID_00000116933172351844292730000007335680951134566057_);fill:url(#SVGID_00000168099829075409046310000010398355915947715470_);}
	
		.st11{clip-path:url(#SVGID_00000116933172351844292730000007335680951134566057_);fill:url(#SVGID_00000006684440267179575230000005310081350922979247_);}
	.st12{fill:url(#SVGID_00000030449612483378956840000009744586129245692088_);}
	.st13{fill:url(#SVGID_00000116928835304632143190000016143320804036347530_);}
	
		.st14{clip-path:url(#SVGID_00000116933172351844292730000007335680951134566057_);fill:url(#SVGID_00000176034713096226392920000006902342188308999093_);}
	.st15{fill:url(#SVGID_00000072998121052012823290000013083504221200748981_);}
	.st16{fill:url(#SVGID_00000130607873203472870550000004265292776647971756_);}
	.st17{fill:url(#SVGID_00000016044150963934199930000013333033149478722218_);}
	.st18{fill:url(#SVGID_00000067230579431851965890000017039041065534297474_);}
	.st19{fill:url(#SVGID_00000100369286680315389240000000172492876128370088_);}
	.st20{fill:url(#SVGID_00000039122924219078865700000000562828553742534817_);}
	.st21{fill:url(#SVGID_00000110438886941462530090000007889091925871690421_);}
	.st22{fill:url(#SVGID_00000008871557259079287720000003181714424848163771_);}
	.st23{fill:url(#SVGID_00000114042600272237628650000003987947795187762086_);}
	.st24{fill:url(#SVGID_00000012452705831461174630000005372458020103507329_);}
	.st25{fill:url(#SVGID_00000003075249411556530480000014651291614197082268_);}
	.st26{fill:url(#SVGID_00000137853363861014217820000002290444195867108505_);}
	.st27{fill:url(#SVGID_00000158746880878844915570000003190017019048219524_);}
	.st28{fill:url(#SVGID_00000157306569043960347420000006672179277712932031_);}
	.st29{opacity:0.8;}
	.st30{fill:url(#SVGID_00000058570008796553011060000004308340067413070751_);}
	.st31{fill:url(#SVGID_00000028297490960409777510000017729857365602735521_);}
	.st32{fill:url(#SVGID_00000052821420255022350060000006359128488024891811_);}
	.st33{fill:url(#SVGID_00000122686623089406779760000000410853997413594290_);}
	.st34{fill:#1C1C1B;}
	
		.st35{clip-path:url(#SVGID_00000116933172351844292730000007335680951134566057_);fill:url(#SVGID_00000119834123783974585170000000705348736121685120_);}
	.st36{fill:url(#SVGID_00000005986127193030920450000002333360904760081030_);}
	.st37{fill:url(#SVGID_00000168810511104570876420000004044752536592744836_);}
	.st38{fill:url(#SVGID_00000114074262020089904940000014785980487034314174_);}
	.st39{fill:url(#SVGID_00000142137857731350450940000005523794728207022234_);}
	.st40{fill:url(#SVGID_00000011734758368800292700000013850725465856359299_);}
	.st41{fill:url(#SVGID_00000137129936723277301460000005393619648835313078_);}
	.st42{fill:url(#SVGID_00000023992806057404196750000015112499071264058001_);}
	.st43{fill:url(#SVGID_00000145059707588872424530000011428842904032457404_);}
	
		.st44{clip-path:url(#SVGID_00000116933172351844292730000007335680951134566057_);fill:url(#SVGID_00000105391803822440296160000011871231097037977245_);}
	
		.st45{clip-path:url(#SVGID_00000116933172351844292730000007335680951134566057_);fill:url(#SVGID_00000119814638568640489500000006000564883747483285_);}
	
		.st46{clip-path:url(#SVGID_00000116933172351844292730000007335680951134566057_);fill:url(#SVGID_00000047754267954424474140000015445632645094654109_);}
	
		.st47{clip-path:url(#SVGID_00000116933172351844292730000007335680951134566057_);fill:url(#SVGID_00000105414940615937771940000007577780261920980909_);}
	
		.st48{clip-path:url(#SVGID_00000116933172351844292730000007335680951134566057_);fill:url(#SVGID_00000141452680851012635350000011893607432513342892_);}
	
		.st49{clip-path:url(#SVGID_00000116933172351844292730000007335680951134566057_);fill:url(#SVGID_00000134955337966965979700000004527803705542264983_);}
	
		.st50{clip-path:url(#SVGID_00000116933172351844292730000007335680951134566057_);fill:url(#SVGID_00000116196713963131761760000005672247586560683945_);}
	
		.st51{clip-path:url(#SVGID_00000116933172351844292730000007335680951134566057_);fill:url(#SVGID_00000075871396213867228770000008380364479687358608_);}
	
		.st52{clip-path:url(#SVGID_00000116933172351844292730000007335680951134566057_);fill:url(#SVGID_00000155837421572857893570000007581774115864443534_);}
	
		.st53{clip-path:url(#SVGID_00000116933172351844292730000007335680951134566057_);fill:url(#SVGID_00000034782571421166616720000014744254834069313440_);}
	
		.st54{clip-path:url(#SVGID_00000116933172351844292730000007335680951134566057_);fill:url(#SVGID_00000009559695619224193860000002250240307122694059_);}
	
		.st55{clip-path:url(#SVGID_00000116933172351844292730000007335680951134566057_);fill:url(#SVGID_00000005973080612403032520000009724014486860811437_);}
	
		.st56{clip-path:url(#SVGID_00000116933172351844292730000007335680951134566057_);fill:url(#SVGID_00000056393487427307066880000007720909532160729529_);}
	
		.st57{clip-path:url(#SVGID_00000116933172351844292730000007335680951134566057_);fill:url(#SVGID_00000054229729819633984710000018270370017279822226_);}
	
		.st58{clip-path:url(#SVGID_00000116933172351844292730000007335680951134566057_);fill:url(#SVGID_00000140009135096897008380000017180070817590096561_);}
	
		.st59{clip-path:url(#SVGID_00000116933172351844292730000007335680951134566057_);fill:url(#SVGID_00000078740038484192571240000017211424729144754837_);}
	
		.st60{clip-path:url(#SVGID_00000116933172351844292730000007335680951134566057_);fill:url(#SVGID_00000098935345397092129690000002807836291640662414_);}
	
		.st61{clip-path:url(#SVGID_00000116933172351844292730000007335680951134566057_);fill:url(#SVGID_00000014625223361087797860000014368998790819133062_);}
	
		.st62{clip-path:url(#SVGID_00000116933172351844292730000007335680951134566057_);fill:url(#SVGID_00000163773515486377144890000003780174530408280225_);}
	
		.st63{clip-path:url(#SVGID_00000116933172351844292730000007335680951134566057_);fill:url(#SVGID_00000085953951305994221000000008942921721199695748_);}
	
		.st64{clip-path:url(#SVGID_00000116933172351844292730000007335680951134566057_);fill:url(#SVGID_00000116209263297700001560000015050335549191774086_);}
	.st65{fill:url(#SVGID_00000137115912010339825570000014308717615233434536_);}
	.st66{fill:url(#SVGID_00000137815324990124720180000006142360744990460553_);}
	
		.st67{clip-path:url(#SVGID_00000116933172351844292730000007335680951134566057_);fill:url(#SVGID_00000034785094107758475220000011379395557678491795_);}
	
		.st68{clip-path:url(#SVGID_00000116933172351844292730000007335680951134566057_);fill:url(#SVGID_00000180339666323860754280000009429220025335032753_);}
	
		.st69{clip-path:url(#SVGID_00000116933172351844292730000007335680951134566057_);fill:url(#SVGID_00000127012839628086449480000015702781240036022404_);}
	
		.st70{clip-path:url(#SVGID_00000116933172351844292730000007335680951134566057_);fill:url(#SVGID_00000021823236340315355920000008830554212641469864_);}
	
		.st71{clip-path:url(#SVGID_00000116933172351844292730000007335680951134566057_);fill:url(#SVGID_00000057114628517210745600000000865885239350762373_);}
	
		.st72{clip-path:url(#SVGID_00000116933172351844292730000007335680951134566057_);fill:url(#SVGID_00000142888550471329043180000009228125404599075259_);}
	.st73{fill:url(#SVGID_00000085243874797601549990000017960625710777640622_);}
	.st74{fill:url(#SVGID_00000023252238924691910830000014701410862155448231_);}
	.st75{fill:#C5AE87;}
	.st76{fill:#0000FE;}
	.st77{fill:#0F0F93;}
	
		.st78{opacity:0.1;clip-path:url(#SVGID_00000119106101514421944190000002849074296882871179_);fill:url(#);stroke:#DE9C4D;stroke-miterlimit:10;}
	.st79{fill:url(#SVGID_00000042694774059463455380000017169977599013522607_);}
	.st80{opacity:0.3;}
	.st81{fill:#FFFFFF;}
	.st82{fill:url(#SVGID_00000135662600935827564160000002180911929076144572_);}
	.st83{fill:none;stroke:#0000FE;stroke-width:0.75;stroke-miterlimit:10;}
	.st84{fill:url(#SVGID_00000093153521294173020970000002662644880165135496_);}
</style>
<g>
	<defs>
		<rect id="SVGID_00000114779155453595339950000016432730056058689964_" x="1078.5" y="0.3" width="999.7" height="999.7"/>
	</defs>
	<clipPath id="SVGID_00000054243529043987637220000011269970400048804787_">
		<use xlink:href="#SVGID_00000114779155453595339950000016432730056058689964_"  style="overflow:visible;"/>
	</clipPath>
	<g style="clip-path:url(#SVGID_00000054243529043987637220000011269970400048804787_);">
		
			<linearGradient id="SVGID_00000119812128970398849740000016028576753796845481_" gradientUnits="userSpaceOnUse" x1="972.4088" y1="61.6967" x2="1170.2754" y2="61.6967">
			<stop  offset="0" style="stop-color:#F8C363"/>
			<stop  offset="0.19" style="stop-color:#984F2C"/>
			<stop  offset="0.4424" style="stop-color:#F8C363"/>
			<stop  offset="0.5515" style="stop-color:#DEAA56"/>
			<stop  offset="0.7091" style="stop-color:#995924"/>
			<stop  offset="1" style="stop-color:#F8C363"/>
		</linearGradient>
		<path style="fill:url(#SVGID_00000119812128970398849740000016028576753796845481_);" d="M1010.1,209.8c5.9-0.4,11.5-0.8,17.1-1.5
			c-3.9,0.8-7.8,1.6-11.9,2.3c5.3-0.4,10.6-1,15.7-1.8c5.2-0.8,10.3-1.9,15.5-3.4c6.1-1.8,11.7-3.8,17.3-6.4l2.1-0.9l2.1-1l4.1-2
			c2.7-1.4,5.3-3,8-4.4c10.4-6.2,20-13.5,28.8-21.6c17.6-16.2,32.5-35.7,43.8-57.8c17-32.7,21.5-70.4,13.9-106.6l-0.7-3.4l-0.8-3.4
			c-0.6-2.2-1.1-4.5-1.7-6.7c-1.2-4.4-2.7-8.7-4.3-12.9c-3.2-8.5-7.2-16.6-11.8-24.2c-4.6-7.5-10.1-14.8-15.4-19.7
			c-5.6-5.3-12.9-10.1-21.5-15.3c-6.7-4.1-12.6-7.2-12.4-6.2c-0.1,0.9,5.8,5.3,12.2,9.3c6.3,4,11.7,7.7,16.1,11.5
			c2.2,1.9,4.2,3.8,6,5.8c0.5,0.5,0.9,1,1.3,1.5l0.7,0.8l0.7,0.9c1,1.2,1.9,2.5,2.9,3.7c7.5,10.2,13.7,22.1,18.2,34.6
			c2.3,6.3,4.1,12.5,5.6,19.2c0.8,3.3,1.3,6.6,2,9.9c0.4,3.3,1.1,6.6,1.3,10l0.5,5l0.3,5l0.1,2.5l0,2.5l0,5
			c-0.3,6.6-0.6,13.1-1.7,19.5c-1.8,12.9-5.7,25.3-10.8,37c-0.6,1.5-1.4,2.9-2.1,4.3c-0.7,1.4-1.3,2.9-2.1,4.3
			c-1.6,2.8-3,5.6-4.8,8.4l-2.6,4.2l-2.8,4.1c-1.8,2.8-3.9,5.3-5.8,8c-8,10.4-17,19.9-26.6,28.1c-9.7,8.3-20.1,15.2-30.9,20.7
			c-7.7,3.9-14.8,6.4-25.5,10c-7.4,2.5-15.3,4.3-23.2,6c-7.9,1.6-15.8,2.9-23,4.1c-14.5,2.3-26.4,4.4-30.4,6.7
			c-4,2.2,0.6,3.8,11,4.8c10.4,0.8,26.5,1.2,44.6-1.6C1023.1,209.2,1016.6,209.6,1010.1,209.8z"/>
		
			<linearGradient id="SVGID_00000027587337774810743870000011184215998090866589_" gradientUnits="userSpaceOnUse" x1="973.4824" y1="63.1376" x2="1188.2716" y2="63.1376">
			<stop  offset="0" style="stop-color:#F8C363"/>
			<stop  offset="0.19" style="stop-color:#984F2C"/>
			<stop  offset="0.4424" style="stop-color:#F8C363"/>
			<stop  offset="0.5515" style="stop-color:#DEAA56"/>
			<stop  offset="0.7091" style="stop-color:#995924"/>
			<stop  offset="1" style="stop-color:#F8C363"/>
		</linearGradient>
		<path style="fill:url(#SVGID_00000027587337774810743870000011184215998090866589_);" d="M1011.9,227.7c6.1-0.4,12.2-0.9,18.3-1.7
			c-4.2,0.9-8.5,1.7-12.7,2.4c11.3-1,22.5-2.4,33.9-5.8c6.7-2,13.2-4.3,19.5-7.1l2.4-1l2.3-1.1c1.5-0.8,3-1.5,4.6-2.2
			c3-1.5,5.9-3.3,8.9-4.9c11.5-6.8,22.1-14.8,31.8-23.7c19.3-17.8,35.5-38.8,47.9-63c19.1-36.5,24-79,15.7-118.7
			c-3.9-19.9-11.1-39.1-21.6-56.2c-2.6-4.3-5.5-8.4-8.5-12.4c-3.1-4-6.2-7.6-9.8-11c-7.1-6.7-15.5-12.1-24.3-17.5
			c-6.8-4.2-12.4-7.1-12.2-6c-0.1,0.9,5.4,5.1,12,9.2c6.5,4.1,12.6,8.3,18,12.9c5.5,4.6,10,9.7,14.4,15.7
			c8.7,11.8,15.6,25.1,20.6,39c2.5,7,4.6,14,6.2,21.3c0.9,3.6,1.5,7.3,2.2,10.9c0.5,3.7,1.2,7.3,1.5,11l0.6,5.5l0.3,5.5l0.2,2.8
			l0,2.8l0,5.5c-0.3,7.3-0.6,14.7-1.8,21.9c-2,14.4-6.3,28.4-12,41.6c-0.7,1.7-1.5,3.2-2.3,4.9c-0.8,1.6-1.5,3.3-2.4,4.8
			c-1.8,3.1-3.4,6.3-5.3,9.4l-2.8,4.6l-3,4.5c-1.9,3-4.2,5.8-6.3,8.8c-8.7,11.4-18.5,21.7-29,30.9c-10.6,9.1-22.1,16.8-34,23
			c-8.6,4.3-16.4,7.3-28.6,11.4c-17.1,5.6-35.4,8.6-50.5,11c-15.2,2.4-27,4.5-31,6.7c-4,2.2,0.5,3.9,11.1,4.8
			c10.5,0.8,27,1.2,46.7-1.8C1025.8,227,1018.9,227.4,1011.9,227.7z"/>
		
			<linearGradient id="SVGID_00000082369378105883676510000002914030035864339877_" gradientUnits="userSpaceOnUse" x1="974.556" y1="64.5762" x2="1206.2631" y2="64.5762">
			<stop  offset="0" style="stop-color:#F8C363"/>
			<stop  offset="0.19" style="stop-color:#984F2C"/>
			<stop  offset="0.4424" style="stop-color:#F8C363"/>
			<stop  offset="0.5515" style="stop-color:#DEAA56"/>
			<stop  offset="0.7091" style="stop-color:#995924"/>
			<stop  offset="1" style="stop-color:#F8C363"/>
		</linearGradient>
		<path style="fill:url(#SVGID_00000082369378105883676510000002914030035864339877_);" d="M1013.8,245.6c6.4-0.4,12.8-1,19.4-1.8
			c-4.5,0.9-9.1,1.8-13.6,2.5c11.9-1.1,24-2.6,36.7-6.3c7.4-2.1,14.8-4.8,21.6-7.9l2.6-1.1l2.5-1.2c1.7-0.8,3.4-1.6,5-2.5
			c3.3-1.7,6.5-3.6,9.7-5.3c12.7-7.5,24.2-16.2,34.8-25.8c21.1-19.3,38.4-41.9,52.1-68.2c10.5-20.1,17.3-42,20.1-64.3
			c2.9-22.3,1.8-44.8-2.7-66.5l-0.8-4.1l-1-4c-0.7-2.7-1.3-5.4-2.1-8c-1.5-5.4-3.3-10.6-5.3-15.8c-4-10.4-8.9-20.4-14.7-30
			c-2.9-4.8-6.1-9.4-9.6-13.9c-3.4-4.4-7.4-9-11.7-13.1c-8.6-8.1-18.1-14.2-27.1-19.7c-6.9-4.3-12.1-6.9-12-5.9
			c-0.1,0.9,5,4.8,11.9,9.1c6.6,4.3,13.5,8.9,20,14.4c3.2,2.7,6.4,5.7,9.3,8.9c2.9,3.3,5.5,6.5,8,9.8c9.9,13.4,17.4,28.1,23.1,43.5
			c2.8,7.7,5.1,15.6,6.9,23.5c1,3.9,1.6,7.9,2.4,11.9c0.6,4,1.3,8,1.6,12.1l0.6,6l0.3,6.1l0.2,3l0,3l0,6.1c-0.3,8.1-0.7,16.2-2,24.2
			c-2.2,16-6.9,31.5-13.3,46.1c-0.7,1.8-1.7,3.6-2.5,5.4c-0.9,1.8-1.7,3.6-2.6,5.3c-1.9,3.5-3.7,7-5.8,10.3l-3.1,5l-3.3,4.9
			c-2.1,3.3-4.5,6.3-6.8,9.5c-9.4,12.4-20,23.6-31.5,33.6c-11.5,10-24.1,18.5-37.2,25.4c-9.5,4.8-18,8.1-31.7,12.8
			c-19.3,6.4-39.1,9.5-54.9,12c-15.8,2.4-27.6,4.5-31.6,6.8c-4,2.2,0.5,3.9,11.1,4.8c5.3,0.4,12.2,0.7,20.4,0.5
			c8.2-0.2,17.8-0.9,28.4-2.5C1028.4,244.8,1021.1,245.3,1013.8,245.6z"/>
		
			<linearGradient id="SVGID_00000137103970879908155560000006015885613542794887_" gradientUnits="userSpaceOnUse" x1="975.6297" y1="66.0182" x2="1224.2578" y2="66.0182">
			<stop  offset="0" style="stop-color:#F8C363"/>
			<stop  offset="0.19" style="stop-color:#984F2C"/>
			<stop  offset="0.4424" style="stop-color:#F8C363"/>
			<stop  offset="0.5515" style="stop-color:#DEAA56"/>
			<stop  offset="0.7091" style="stop-color:#995924"/>
			<stop  offset="1" style="stop-color:#F8C363"/>
		</linearGradient>
		<path style="fill:url(#SVGID_00000137103970879908155560000006015885613542794887_);" d="M1015.7,263.5c6.7-0.5,13.5-1,20.5-2
			c-4.8,1-9.7,1.9-14.4,2.7c6.3-0.5,12.7-1.3,19.2-2.4c6.5-1.1,13.3-2.5,20.2-4.5c33.1-9.7,60.3-26.9,83.2-47.5
			c11.4-10.4,21.7-21.7,31.1-33.9c2.4-3,4.6-6.2,6.8-9.3c2.2-3.2,4.3-6.4,6.4-9.7c4.1-6.6,8.1-13.2,11.8-20.5
			c11.5-21.9,18.9-46,22-70.4c3.1-24.4,1.9-49-2.9-72.4l-0.9-4.4l-1.1-4.3c-0.7-2.9-1.4-5.8-2.3-8.7c-1.7-5.9-3.6-11.6-5.8-17.3
			c-4.3-11.3-9.7-22.3-16.1-32.9c-3.2-5.3-6.7-10.4-10.6-15.4c-0.9-1.3-2-2.5-3-3.7c-0.5-0.6-1-1.2-1.5-1.9l-1.7-2
			c-2.3-2.7-4.8-5.2-7.3-7.5c-10.1-9.5-20.8-16.3-29.9-21.9c-7.1-4.4-11.9-6.8-11.8-5.8c0,0.9,4.7,4.6,11.7,9
			c6.8,4.4,14.4,9.4,21.9,15.8c3.7,3.2,7.4,6.7,10.9,10.5c0.9,0.9,1.7,1.9,2.6,2.9l1.3,1.5l1.1,1.4c1.5,1.8,2.9,3.7,4.3,5.5
			c11,15,19.3,31.1,25.5,47.9c3.1,8.4,5.6,17.1,7.5,25.6c1,4.3,1.8,8.6,2.6,12.9c0.6,4.4,1.4,8.7,1.8,13.1l0.7,6.6l0.4,6.6l0.2,3.3
			l0,3.3l0.1,6.6c-0.3,8.9-0.8,17.7-2.2,26.5c-2.4,17.5-7.6,34.6-14.5,50.7c-0.8,2-1.8,4-2.8,5.9c-1,2-1.8,4-2.9,5.9
			c-2.1,3.8-4.1,7.7-6.3,11.2l-3.3,5.4l-3.5,5.3c-2.3,3.5-4.8,6.8-7.3,10.2c-10.1,13.4-21.5,25.5-33.9,36.3
			c-12.4,10.8-26,20.1-40.3,27.7c-2.5,1.4-5.1,2.6-7.7,3.8c-1.3,0.6-2.6,1.2-3.9,1.8c-1.3,0.5-2.7,1.1-4.1,1.6
			c-2.8,1.1-5.6,2.3-8.8,3.4c-3.2,1.1-6.5,2.4-10.4,3.7c-21.5,7.2-42.8,10.4-59.2,12.9c-16.4,2.5-28.2,4.6-32.1,6.8
			c-4,2.2,0.5,3.9,11.1,4.8c5.4,0.4,12.4,0.7,20.9,0.4c8.5-0.2,18.6-0.9,29.9-2.8C1031.1,262.6,1023.3,263.2,1015.7,263.5z"/>
	</g>
</g>
<g>
	<g>
		<path class="st75" d="M441.4,392.6c-12.3-6.1-18.5-14.3-18.5-24.7c0-4.4,2.2-9.6,6.5-15.6c4-5.5,8-9.5,12.2-11.9
			c18-7.6,58-22.4,61.6-22.4h78.7c-8.9,8-17.3,14.7-25.3,20.2c-2.7,1.9-4,5.9-4,11.9v111.6c0,9.5,5.3,14.2,15.9,14.2
			c1.1,0,1.8,0.1,2,0.3c0,0.2,0,0.4-0.1,0.6c-0.1,0.2-5.8,3.1-17.2,8.8c-1.9,0.9-11,5.8-27.3,14.5l-25.6,17
			c-0.6,0.6-1.6,1.5-3.1,2.8l-4.5,4.3c-3.8,3.6-6,5.4-6.5,5.4c-0.4,0-1-0.9-1.8-2.6c-0.9-1.7-1.5-2.7-1.8-3.1
			c-3.2-5.1-10.2-10.3-21-15.5c-10.8-5.2-19.3-7.8-25.6-7.8c-9.5,0-14.2,3.8-14.2,11.4c0,5.5,3,8.8,9.1,9.9v-3.4
			c-0.2-0.9-0.3-2-0.3-3.1c0-3.4,2.3-5.1,6.8-5.1c1.5,0,3.1,0.8,4.8,2.4c1.7,1.6,2.6,3.3,2.6,5c0,2.5-1.1,4.6-3.4,6.5
			c-2.3,1.9-4.7,2.8-7.4,2.8c-3,0-6.3-1.6-9.8-4.7c-3.5-3.1-5.3-6.1-5.3-8.9c-0.6-0.8-0.9-1.7-0.9-2.8c0-1.3,0.9-3.5,2.8-6.5
			c1.9-3,3.5-4.9,4.8-5.7l48.6-29v0.6c-0.4,0.2-1,1.1-2,2.8c-1.5,2.1-2.3,4.2-2.3,6.2c0,4,5.7,9.3,17,15.9
			c10.6,6.2,18.1,9.4,22.4,9.4c10.8,0,16.2-8.1,16.2-24.4v-5.7c-0.2-1.7-0.3-3.4-0.3-5.1l-0.3-89.2c0-2.8-0.8-5.3-2.3-7.4
			c-1.1-1.1-4-2-8.5-2.6l-0.3-0.3l35.2-26.4c-1-0.9-1.8-1.4-2.6-1.4c-50.4,0-82.9,0.2-97.7,0.6c0,0.6-1.1,1.4-3.4,2.6
			c-3.6,1.9-5.4,5.3-5.4,10.2c0,10.6,7.5,15.9,22.4,15.9c4.4,0,8.4-1.2,12.2-3.7c3.8-2.5,5.7-5.6,5.7-9.4c0-0.8-0.4-1.5-1.1-2.3
			l-2.3-2.3c-0.4,0.4-0.7,0.9-0.9,1.4c-1.3,2.5-2.8,3.7-4.5,3.7c-2.8,0-4.3-1.4-4.3-4.3c0-3.2,1.7-4.8,5.1-4.8
			c2.6,0,4.9,0.9,6.8,2.8c1.9,1.9,2.8,4.1,2.8,6.5c0,3.2-2.6,7.2-7.7,11.9c-2.5,2.3-7.5,5.9-15.1,10.8c-6,3.9-10.8,7.8-14.4,11.8
			L441.4,392.6z"/>
		<path class="st76" d="M516.3,401.1c-0.2,0.2-0.9,0.8-2.3,1.8c-9.5,7.5-14.2,12.6-14.2,15.5c0,1.9,2.2,4.8,6.6,8.9
			c3.6,3.2,6.8,5.8,9.7,7.6c-5.3,2.2-10.3,7-15.1,14.4c-4.8,7.4-7.2,13.9-7.2,19.4c0,9.7,3.2,14.5,9.7,14.5c5.4,0,8.1-2.6,8.1-7.9
			c0-1.2-0.8-2.6-2.5-4.3c-0.7,3.6-2.3,5.3-4.8,5.3c-1.9,0-2.8-1-2.8-3.1c0-3.4,2.1-5.1,6.4-5.1c1.5,0,2.8,0.9,3.9,2.5
			c1.1,1.7,1.7,3.6,1.7,5.6c0,6.1-3.5,9.2-10.4,9.2c-3.7,0-6.7-2-8.9-6.1c-1.7-3.2-2.5-6.9-2.5-10.9c0-5.6,2.4-11.8,7.1-18.6
			c-4.4-6.9-9.8-11.9-16.3-14.7c10.3-5.8,15.5-11.3,15.5-16.5c0-4.9-5.3-11.1-15.8-18.6c14.9-9.3,22.4-17.9,22.4-25.7
			c0-5.6-2.5-8.4-7.6-8.4c-2.4,0-3.6,1.1-3.6,3.3c4.1,0.7,6.1,2,6.1,4.1c0,3.1-0.8,4.6-2.5,4.6c-4.6,0-6.9-2.5-6.9-7.6
			c0-1.7,0.8-3.2,2.5-4.4c1.7-1.3,3.6-1.9,5.6-1.9c5.6,0,8.4,3.6,8.4,10.9c0,2.7-1.4,6.3-4.1,10.7c0,2.5,2.5,5.9,7.4,10.2
			C511.9,397.5,514.1,399.3,516.3,401.1z"/>
		<path class="st77" d="M574.1,485.5c-0.3,0.1-1.1,0.6-2.4,1.3c-0.4,0.4-1.1,0.8-2,1.1c-1.2,0.7-2.3,2.2-3.3,4.4v0.7
			c0,1.9-0.4,2.9-1.3,2.9c-0.3,0-1-0.2-2.1-0.7c-1.1-0.4-1.9-0.7-2.3-0.7c-3.8,0-6.4,1-7.7,2.9c6,2.5,9,5.8,9,9.9
			c0,1.9-0.8,3.6-2.3,5.2c-1.5,1.5-3.3,2.3-5.2,2.3c-3.4,0-5.1-1.6-5.1-4.8c0-2.4,0.8-3.5,2.4-3.5c2.3,0,3.5,0.7,3.5,2
			c0,1-0.3,2.2-0.9,3.5l0.2,0.2c0,0.1,0.1,0.2,0.2,0.2c3.7,0,5.5-1.8,5.5-5.3c0-2.1-0.9-3.8-2.6-5.2c-1.8-1.4-3.7-2.1-6-2.1
			c-3.2,0-7.9,1.9-13.9,5.7c-4.3,2.9-8.8,5.9-13.7,8.8l-0.4-0.4v-2.2l48.3-27.8l2,0.2V485.5z"/>
	</g>
	<g>
		<g>
			<path class="st76" d="M315.8,590.3c0-13.1,0-15.5-0.2-18.3c-0.2-2.9-0.9-4.3-3.7-4.9c-0.7-0.2-2.2-0.3-3.4-0.3
				c-1,0-1.5-0.2-1.5-0.8s0.6-0.8,1.9-0.8c4.6,0,10,0.3,12.3,0.3c2.1,0,7.5-0.3,10.9-0.3c1.2,0,1.8,0.2,1.8,0.8s-0.5,0.8-1.6,0.8
				c-0.9,0-1.5,0.1-2.5,0.3c-2.3,0.4-3,1.9-3.2,4.9c-0.2,2.8-0.2,5.2-0.2,18.3v16c0,3.7,0.3,7.9,0.3,12.2c0,4.9-0.3,10.4-2.1,15.3
				c-1.8,5.3-6.4,11.2-14.7,16.3c-1.1,0.7-2.5,1.4-4.3,2.2c-0.6,0.3-1.3,0.5-1.7,0.5c-0.3,0-0.7-0.3-0.7-0.7s0.4-0.8,1.9-1.6
				c1.1-0.6,2.4-1.6,4.1-3.3c6.6-6.6,6.5-15.3,6.5-32.2V590.3z"/>
			<path class="st76" d="M340.9,602.8c0-12.5,8.8-28.8,31.9-28.8c19.2,0,31.1,10.6,31.1,27.5s-12.3,30-31.9,30
				C349.9,631.5,340.9,615.8,340.9,602.8z M392.5,604.1c0-16.2-9.8-26.2-22-26.2c-8.5,0-18.4,4.5-18.4,22.6c0,15.1,8.6,27,23,27
				C380.4,627.5,392.5,625,392.5,604.1z"/>
			<path class="st76" d="M428.2,609.2c0,9.4,0,14.1,1.6,15.5c1.3,1.1,4.2,1.6,10.1,1.6c4.1,0,7-0.1,8.9-2.1c0.9-1,1.7-3,1.9-4.4
				c0.1-0.7,0.3-1.1,0.9-1.1c0.5,0,0.7,0.8,0.7,1.6s-0.5,6.3-1.1,8.5c-0.5,1.6-0.9,2-4.8,2c-5.4,0-9.8-0.1-13.6-0.3
				c-3.8-0.1-7-0.2-10.1-0.2c-0.9,0-2.5,0.1-4.3,0.1c-1.8,0.1-3.7,0.2-5.3,0.2c-1,0-1.5-0.3-1.5-0.8c0-0.3,0.3-0.8,1.2-0.8
				c1.1,0,2-0.1,2.7-0.3c1.6-0.3,2-1.7,2.2-3.9c0.3-3.1,0.3-8.9,0.3-15.6v-13c0-11.1,0-13.2-0.1-15.5c-0.2-2.5-0.9-3.3-3.3-4
				c-0.6-0.2-1.6-0.3-2.5-0.3c-0.9,0-1.3-0.3-1.3-0.8c0-0.5,0.5-0.7,1.6-0.7c3.5,0,8.4,0.2,10.4,0.2c1.8,0,8-0.2,11-0.2
				c1.1,0,1.6,0.2,1.6,0.7c0,0.5-0.4,0.8-1.4,0.8c-0.9,0-2.1,0.1-2.9,0.3c-2.1,0.3-2.7,1.4-2.8,4c-0.2,2.3-0.2,4.4-0.2,15.5V609.2z"
				/>
			<path class="st76" d="M475.9,609.2c0,9.4,0,14.1,1.6,15.5c1.3,1.1,4.2,1.6,10.1,1.6c4.1,0,7-0.1,8.9-2.1c0.9-1,1.7-3,1.9-4.4
				c0.1-0.7,0.3-1.1,0.9-1.1c0.5,0,0.7,0.8,0.7,1.6s-0.5,6.3-1.1,8.5c-0.5,1.6-0.9,2-4.8,2c-5.4,0-9.8-0.1-13.6-0.3
				c-3.8-0.1-7-0.2-10.1-0.2c-0.9,0-2.5,0.1-4.3,0.1c-1.8,0.1-3.7,0.2-5.3,0.2c-1,0-1.5-0.3-1.5-0.8c0-0.3,0.3-0.8,1.2-0.8
				c1.1,0,2-0.1,2.7-0.3c1.6-0.3,2-1.7,2.2-3.9c0.3-3.1,0.3-8.9,0.3-15.6v-13c0-11.1,0-13.2-0.1-15.5c-0.2-2.5-0.9-3.3-3.3-4
				c-0.6-0.2-1.6-0.3-2.5-0.3c-0.9,0-1.3-0.3-1.3-0.8c0-0.5,0.5-0.7,1.6-0.7c3.5,0,8.4,0.2,10.4,0.2c1.8,0,8-0.2,11-0.2
				c1.1,0,1.6,0.2,1.6,0.7c0,0.5-0.4,0.8-1.4,0.8c-0.9,0-2.1,0.1-2.9,0.3c-2.1,0.3-2.7,1.4-2.8,4c-0.2,2.3-0.2,4.4-0.2,15.5V609.2z"
				/>
			<path class="st76" d="M513.3,596.3c0-11.1,0-13.2-0.1-15.5c-0.2-2.5-1-3.4-2.6-3.9c-0.9-0.3-1.8-0.3-2.8-0.3
				c-0.8,0-1.2-0.2-1.2-0.9c0-0.4,0.6-0.6,1.8-0.6c2.8,0,8,0.2,10.2,0.2c1.9,0,6.8-0.2,9.8-0.2c1,0,1.6,0.2,1.6,0.6
				c0,0.7-0.4,0.9-1.2,0.9s-1.4,0.1-2.2,0.3c-2.1,0.3-2.7,1.4-2.8,4c-0.2,2.3-0.2,4.4-0.2,15.5v13c0,7.1,0,13,0.3,16.1
				c0.3,2,0.8,3.1,3,3.5c1,0.2,2.8,0.3,3.9,0.3c0.9,0,1.2,0.4,1.2,0.8c0,0.5-0.6,0.8-1.5,0.8c-5,0-10.2-0.3-12.3-0.3
				c-1.7,0-6.9,0.3-9.9,0.3c-1,0-1.5-0.3-1.5-0.8c0-0.3,0.3-0.8,1.2-0.8c1.1,0,2-0.1,2.7-0.3c1.6-0.3,2-1.4,2.2-3.5
				c0.3-3,0.3-8.9,0.3-16V596.3z"/>
			<path class="st76" d="M548.8,623.6c-7.5-6.3-9.5-14.6-9.5-21.7c0-5,1.6-13.6,8.9-20.1c5.5-4.8,12.8-7.8,24.1-7.8
				c4.8,0,7.6,0.3,11.1,0.8c2.8,0.4,5.4,0.9,7.6,1.2c0.9,0.1,1.1,0.4,1.1,0.9c0,0.6-0.2,1.5-0.3,4.1c-0.2,2.4-0.2,6.5-0.3,7.9
				c-0.1,1-0.3,1.8-1,1.8c-0.6,0-0.8-0.6-0.8-1.6c-0.1-2.3-1-4.9-2.9-6.8c-2.6-2.5-7.7-4.3-14.7-4.3c-6.6,0-10.9,1.2-14.3,4.1
				c-5.6,4.8-7,11.9-7,19.1c0,17.4,13.5,25.7,23.7,25.7c6.7,0,10.4-0.5,13.5-3.9c1.3-1.5,2.3-3.5,2.6-4.9c0.2-1.1,0.3-1.5,1-1.5
				c0.5,0,0.9,0.7,0.9,1.3c0,0.9-0.9,7.3-1.6,9.8c-0.3,1.3-0.7,1.6-2,2.2c-3,1.2-8.8,1.6-13.7,1.6
				C564.6,631.5,555.7,629.4,548.8,623.6z"/>
			<path class="st76" d="M611.8,612.1c-0.4,0-0.5,0.1-0.7,0.5l-4.1,9.8c-0.8,1.8-1.1,3.6-1.1,4.5c0,1.3,0.7,2.1,3,2.1h1.1
				c1,0,1.1,0.3,1.1,0.8c0,0.6-0.4,0.8-1.2,0.8c-2.5,0-6-0.3-8.5-0.3c-0.8,0-4.8,0.3-8.8,0.3c-1,0-1.4-0.2-1.4-0.8
				c0-0.4,0.3-0.8,0.9-0.8c0.7,0,1.6-0.1,2.2-0.1c3.5-0.5,4.7-2.8,6.3-6.5l19.9-46.2c0.9-2.1,1.5-2.9,2.2-2.9c1.1,0,1.5,0.7,2.2,2.3
				c1.8,4.1,14.5,34.1,19.3,45.2c2.9,6.6,5.1,7.6,6.5,7.9c1.1,0.2,2,0.3,2.8,0.3c0.7,0,1,0.3,1,0.8c0,0.6-0.4,0.8-3.3,0.8
				c-2.7,0-8.2,0-14.6-0.2c-1.4-0.1-2.2-0.1-2.2-0.6c0-0.4,0.2-0.7,0.9-0.8c0.5-0.1,1-0.8,0.7-1.6l-5.9-14.8
				c-0.2-0.4-0.4-0.5-0.8-0.5H611.8z M628,608c0.3,0,0.4-0.2,0.3-0.4l-7.2-18.7c-0.1-0.3-0.2-0.7-0.3-0.7c-0.3,0-0.3,0.4-0.4,0.7
				l-7.3,18.6c-0.2,0.3,0,0.5,0.3,0.5H628z"/>
			<path class="st76" d="M673.3,609.2c0,9.4,0,14.1,1.6,15.5c1.3,1.1,4.2,1.6,10.1,1.6c4.1,0,7-0.1,8.9-2.1c1-1,1.7-3,1.9-4.4
				c0.1-0.7,0.3-1.1,0.9-1.1c0.5,0,0.7,0.8,0.7,1.6s-0.5,6.3-1.1,8.5c-0.5,1.6-0.9,2-4.8,2c-5.4,0-9.8-0.1-13.6-0.3
				c-3.8-0.1-7-0.2-10.1-0.2c-0.9,0-2.5,0.1-4.3,0.1c-1.8,0.1-3.7,0.2-5.3,0.2c-0.9,0-1.5-0.3-1.5-0.8c0-0.3,0.3-0.8,1.2-0.8
				c1.1,0,2-0.1,2.7-0.3c1.6-0.3,2-1.7,2.2-3.9c0.3-3.1,0.3-8.9,0.3-15.6v-13c0-11.1,0-13.2-0.1-15.5c-0.2-2.5-0.9-3.3-3.3-4
				c-0.6-0.2-1.6-0.3-2.5-0.3c-0.9,0-1.3-0.3-1.3-0.8c0-0.5,0.5-0.7,1.6-0.7c3.5,0,8.4,0.2,10.4,0.2c1.8,0,8-0.2,11-0.2
				c1.1,0,1.6,0.2,1.6,0.7c0,0.5-0.4,0.8-1.4,0.8c-0.9,0-2.1,0.1-2.9,0.3c-2.1,0.3-2.7,1.4-2.8,4c-0.2,2.3-0.2,4.4-0.2,15.5V609.2z"
				/>
		</g>
		<g>
			<path class="st75" d="M445.1,663.7h-10.9v6.5h12l-0.5,3.5h-15.5v-22.4h15.4v3.5h-11.3v5.5h10.9V663.7z"/>
			<path class="st75" d="M459.4,673.6l-8-22.4h4.5l3.5,10.6c1.1,3.2,2,6.1,2.5,8.3h0.1c0.5-2,1.5-5,2.6-8.2l3.7-10.7h4.3l-8.2,22.4
				H459.4z"/>
			<path class="st75" d="M493.7,663.7h-10.9v6.5h12l-0.5,3.5h-15.5v-22.4h15.4v3.5h-11.3v5.5h10.9V663.7z"/>
			<path class="st75" d="M501.7,673.6v-22.4h5.3c2.9,5.1,8.7,14.9,9.8,17.3h0.1c-0.2-2.5-0.2-6.3-0.2-10v-7.4h3.8v22.4h-5
				c-2.6-4.5-8.9-15.5-10.1-18.1h-0.1c0.2,2.2,0.2,6.5,0.2,10.5v7.5H501.7z"/>
			<path class="st75" d="M534.1,654.7h-7v-3.5h18.1v3.5h-6.9v18.9h-4.2V654.7z"/>
			<path class="st75" d="M554.5,667.2c0.5,2.4,2.2,3.5,5,3.5c2.9,0,4.1-1.2,4.1-3c0-2-1.1-2.9-5.1-3.9c-5.8-1.4-7.4-3.5-7.4-6.5
				c0-3.7,2.8-6.4,8-6.4c5.7,0,8,3.2,8.4,6.3h-4.2c-0.3-1.6-1.2-3.1-4.2-3.1c-2.2,0-3.5,1-3.5,2.7c0,1.7,1.1,2.4,4.8,3.3
				c6.5,1.5,7.8,4,7.8,7c0,3.9-3,6.7-8.7,6.7c-5.7,0-8.5-2.9-9-6.8H554.5z"/>
		</g>
	</g>
</g>
</svg>
